<?xml version="1.0" encoding="utf-8"?>
<!-- Generator: Adobe Illustrator 21.0.0, SVG Export Plug-In . SVG Version: 6.00 Build 0)  -->
<svg version="1.1" id="Layer_1" xmlns="http://www.w3.org/2000/svg" xmlns:xlink="http://www.w3.org/1999/xlink" x="0px" y="0px"
	 viewBox="0 0 50.3 8.7" style="enable-background:new 0 0 50.3 8.7;" xml:space="preserve">
<style type="text/css">
	.st0{fill:#231F20;}
	.st1{fill:#FFA400;}
</style>
<title>Artboard 1</title>
<path class="st0" d="M4.2,1.5C4,1.4,3.8,1.4,3.7,1.4c-0.4,0-0.8,0.1-0.8,0.7v0.6h1.3v1.4H2.9v4.4H1V4.1H0V2.8h1V2.2
	C1,0.1,2.3,0,3.2,0c0.3,0,0.7,0,1,0.2V1.5z"/>
<path class="st0" d="M5.9,6.1c0,0.7,0.3,1.3,1.3,1.3c0.5,0.1,0.9-0.2,1.1-0.7H10c-0.2,1.1-1.2,2-2.8,2c-1.6,0.2-3-1-3.1-2.6
	C4,6,4,5.8,4,5.7c0-1.6,1.2-2.9,2.8-3c0.1,0,0.2,0,0.3,0c1.5-0.1,2.9,1,3,2.5c0,0.1,0,0.1,0,0.2c0,0.3,0,0.6-0.1,0.8L5.9,6.1z
	 M5.9,5h2.4c0-0.6-0.4-1.2-1.1-1.2H7.1c-0.6-0.1-1.2,0.4-1.2,1C5.9,4.9,5.9,5,5.9,5z"/>
<path class="st0" d="M12.2,6.1c0,0.7,0.3,1.3,1.3,1.3c0.5,0.1,0.9-0.2,1.1-0.7h1.8c-0.2,1.1-1.2,2-2.9,2c-1.6,0.2-3-1-3.1-2.6
	c0-0.1,0-0.3,0-0.4c-0.1-1.6,1.1-2.9,2.7-3c0.1,0,0.2,0,0.3,0c1.5-0.1,2.9,1,3,2.5c0,0.1,0,0.1,0,0.2c0,0.3,0,0.6-0.1,0.8L12.2,6.1z
	 M12.2,5h2.4c0-0.6-0.4-1.2-1-1.2h-0.1c-0.6-0.1-1.2,0.4-1.2,1C12.2,4.9,12.2,4.9,12.2,5z"/>
<path class="st0" d="M21.3,7.7c-0.4,0.6-1,1-1.8,1c-1.6,0-2.8-1.3-2.8-2.8c0-0.1,0-0.1,0-0.2c-0.1-1.6,1.1-2.9,2.7-3
	c0.1,0,0.1,0,0.2,0c0.7,0,1.4,0.4,1.8,1V0.1h1.8v8.4h-1.8V7.7H21.3z M21.3,5.6c0-0.8-0.6-1.4-1.4-1.4s-1.4,0.6-1.4,1.4l0,0
	c0,0.8,0.6,1.4,1.4,1.4C20.7,7,21.3,6.4,21.3,5.6z"/>
<path class="st0" d="M25.9,8.5h-1.8V0.1h1.8v3.4c0.4-0.6,1-1,1.8-1c1.6,0,2.8,1.3,2.8,2.8c0,0.1,0,0.1,0,0.2c0.1,1.6-1.1,2.9-2.7,3
	c-0.1,0-0.1,0-0.2,0c-0.7,0-1.4-0.4-1.8-1v1H25.9z M28.7,5.6c0-0.8-0.6-1.4-1.4-1.4s-1.4,0.6-1.4,1.4S26.5,7,27.3,7
	C28.1,7,28.7,6.4,28.7,5.6z"/>
<path class="st0" d="M37.2,2.8v5.8h-1.8V7.7c-0.4,0.6-1,1-1.8,1c-1.6,0-2.8-1.3-2.8-2.8c0-0.1,0-0.1,0-0.2c-0.1-1.6,1.1-2.9,2.7-3
	c0.1,0,0.1,0,0.2,0c0.7,0,1.4,0.4,1.8,1v-1h1.7V2.8z M35.4,5.6c0-0.8-0.6-1.4-1.4-1.4c-0.8,0-1.4,0.6-1.4,1.4l0,0
	C32.6,6.4,33.2,7,34,7C34.7,7,35.4,6.4,35.4,5.6L35.4,5.6z"/>
<path class="st0" d="M42,5c-0.1-0.5-0.4-0.9-1.1-0.9s-1.3,0.7-1.3,1.5C39.5,6.3,40,7,40.7,7.1c0.1,0,0.2,0,0.3,0
	c0.5,0,0.9-0.3,1-0.8h1.8c-0.2,1.5-1.5,2.5-3,2.3c-1.6,0.1-3-1.1-3.1-2.7c0-0.1,0-0.2,0-0.3c0-1.6,1.3-3,2.9-3c0.1,0,0.2,0,0.2,0
	c1.5-0.2,2.8,0.9,3,2.3c0,0,0,0,0,0.1L42,5z"/>
<polygon class="st0" points="45.7,6.1 45.7,6.1 45.3,5.7 45.7,5.2 45.7,5.2 46.3,4.3 46.3,0.1 44.5,0.1 44.5,8.5 46.3,8.5 46.3,7 
	"/>
<polygon class="st1" points="50.3,2.7 48.1,2.7 46.8,4.5 46,5.7 46.3,6.1 46.3,6.1 48.1,8.5 50.2,8.5 48,5.6 "/>
</svg>
